<svg xmlns="http://www.w3.org/2000/svg" width="131" height="42" viewBox="0 0 131 42" fill="none"><path d="M11.3328 5.22933V7.00986H4.04229V12.6642H9.96135V14.4448H4.04229V22H1.85271V5.22933H11.3328ZM25.6711 8.81445V22H23.4815V20.051C23.0644 20.7248 22.4789 21.2541 21.725 21.6391C20.9872 22.008 20.1691 22.1925 19.2708 22.1925C18.2442 22.1925 17.3218 21.984 16.5037 21.5669C15.6857 21.1338 15.036 20.4922 14.5548 19.642C14.0896 18.7918 13.857 17.7572 13.857 16.5381V8.81445H16.0225V16.2494C16.0225 17.5487 16.3514 18.5512 17.009 19.257C17.6667 19.9468 18.565 20.2917 19.7039 20.2917C20.8749 20.2917 21.7972 19.9307 22.4709 19.2089C23.1446 18.4871 23.4815 17.4364 23.4815 16.0569V8.81445H25.6711ZM32.0388 10.619V18.3908C32.0388 19.0324 32.1752 19.4896 32.4479 19.7623C32.7206 20.019 33.1938 20.1473 33.8675 20.1473H35.4796V22H33.5066C32.2875 22 31.3731 21.7193 30.7636 21.1579C30.154 20.5964 29.8493 19.6741 29.8493 18.3908V10.619H28.1409V8.81445H29.8493V5.494H32.0388V8.81445H35.4796V10.619H32.0388ZM49.8263 8.81445V22H47.6367V20.051C47.2197 20.7248 46.6342 21.2541 45.8802 21.6391C45.1424 22.008 44.3243 22.1925 43.426 22.1925C42.3994 22.1925 41.477 21.984 40.659 21.5669C39.8409 21.1338 39.1912 20.4922 38.71 19.642C38.2448 18.7918 38.0122 17.7572 38.0122 16.5381V8.81445H40.1777V16.2494C40.1777 17.5487 40.5066 18.5512 41.1642 19.257C41.8219 19.9468 42.7202 20.2917 43.8591 20.2917C45.0301 20.2917 45.9524 19.9307 46.6261 19.2089C47.2999 18.4871 47.6367 17.4364 47.6367 16.0569V8.81445H49.8263ZM55.7128 10.9559C56.0978 10.202 56.6432 9.61649 57.349 9.19943C58.0708 8.78237 58.9451 8.57384 59.9717 8.57384V10.8356H59.3942C56.9399 10.8356 55.7128 12.167 55.7128 14.8298V22H53.5233V8.81445H55.7128V10.9559ZM74.5298 14.9019C74.5298 15.319 74.5058 15.7601 74.4576 16.2253H63.9188C63.999 17.5246 64.4402 18.5432 65.2422 19.2811C66.0603 20.0029 67.0468 20.3638 68.2017 20.3638C69.1481 20.3638 69.9341 20.1473 70.5597 19.7142C71.2014 19.265 71.6505 18.6715 71.9072 17.9337H74.2652C73.9123 19.2009 73.2065 20.2355 72.1478 21.0376C71.0891 21.8236 69.7737 22.2166 68.2017 22.2166C66.9505 22.2166 65.8277 21.9358 64.8332 21.3744C63.8547 20.813 63.0847 20.019 62.5233 18.9923C61.9619 17.9497 61.6811 16.7466 61.6811 15.3832C61.6811 14.0197 61.9538 12.8247 62.4992 11.798C63.0446 10.7714 63.8065 9.98543 64.785 9.44004C65.7796 8.87861 66.9185 8.5979 68.2017 8.5979C69.4529 8.5979 70.5597 8.87059 71.5222 9.41598C72.4846 9.96137 73.2225 10.7153 73.7358 11.6777C74.2652 12.6241 74.5298 13.6989 74.5298 14.9019ZM72.2681 14.4448C72.2681 13.6107 72.0836 12.8968 71.7147 12.3033C71.3457 11.6938 70.8404 11.2366 70.1988 10.9318C69.5732 10.611 68.8754 10.4506 68.1055 10.4506C66.9987 10.4506 66.0523 10.8035 65.2663 11.5093C64.4963 12.2151 64.0552 13.1936 63.9429 14.4448H72.2681Z" fill="#31587C"></path><path d="M87.5979 5.20527V7.92418H80.5961V12.2311H85.9617V14.9019H80.5961V22H77.2275V5.20527H87.5979ZM93.3551 4.19469V22H89.9865V4.19469H93.3551ZM102.602 22.2166C101.319 22.2166 100.164 21.9358 99.1375 21.3744C98.1109 20.7969 97.3008 19.9869 96.7073 18.9442C96.1298 17.9016 95.8411 16.6985 95.8411 15.335C95.8411 13.9716 96.1379 12.7685 96.7314 11.7259C97.3409 10.6832 98.167 9.88116 99.2097 9.31973C100.252 8.74227 101.415 8.45353 102.699 8.45353C103.982 8.45353 105.145 8.74227 106.187 9.31973C107.23 9.88116 108.048 10.6832 108.642 11.7259C109.251 12.7685 109.556 13.9716 109.556 15.335C109.556 16.6985 109.243 17.9016 108.618 18.9442C108.008 19.9869 107.174 20.7969 106.115 21.3744C105.073 21.9358 103.902 22.2166 102.602 22.2166ZM102.602 19.2811C103.212 19.2811 103.781 19.1367 104.311 18.848C104.856 18.5432 105.289 18.0941 105.61 17.5006C105.931 16.907 106.091 16.1852 106.091 15.335C106.091 14.0678 105.754 13.0973 105.081 12.4236C104.423 11.7339 103.613 11.389 102.65 11.389C101.688 11.389 100.878 11.7339 100.22 12.4236C99.5786 13.0973 99.2578 14.0678 99.2578 15.335C99.2578 16.6023 99.5706 17.5808 100.196 18.2705C100.838 18.9442 101.64 19.2811 102.602 19.2811ZM130.506 8.67008L126.608 22H122.975L120.545 12.6883L118.114 22H114.457L110.535 8.67008H113.952L116.31 18.8239L118.86 8.67008H122.421L124.924 18.7999L127.282 8.67008H130.506Z" fill="#F2A341"></path><path d="M6.46581 30.0935V31.0391H4.03794V39H2.87511V31.0391H0.434461V30.0935H6.46581ZM12.26 31.0391V34.0165H15.5057V34.9748H12.26V38.0416H15.889V39H11.0972V30.0808H15.889V31.0391H12.26ZM20.4141 34.5404C20.4141 33.6715 20.61 32.892 21.0019 32.202C21.3937 31.5034 21.9262 30.9582 22.5992 30.5663C23.2807 30.1745 24.0346 29.9785 24.8609 29.9785C25.8321 29.9785 26.6797 30.2128 27.4038 30.6813C28.1279 31.1499 28.6561 31.8143 28.9883 32.6748H27.5955C27.3484 32.1381 26.9906 31.7249 26.5221 31.4353C26.0621 31.1456 25.5084 31.0008 24.8609 31.0008C24.239 31.0008 23.6811 31.1456 23.187 31.4353C22.6929 31.7249 22.3053 32.1381 22.0241 32.6748C21.743 33.2029 21.6025 33.8248 21.6025 34.5404C21.6025 35.2474 21.743 35.8693 22.0241 36.406C22.3053 36.9342 22.6929 37.3431 23.187 37.6327C23.6811 37.9224 24.239 38.0672 24.8609 38.0672C25.5084 38.0672 26.0621 37.9266 26.5221 37.6455C26.9906 37.3559 27.3484 36.9427 27.5955 36.406H28.9883C28.6561 37.2579 28.1279 37.9181 27.4038 38.3866C26.6797 38.8467 25.8321 39.0767 24.8609 39.0767C24.0346 39.0767 23.2807 38.885 22.5992 38.5016C21.9262 38.1098 21.3937 37.5688 21.0019 36.8788C20.61 36.1888 20.4141 35.4093 20.4141 34.5404ZM40.7812 30.0935V39H39.6184V34.9621H35.0821V39H33.9193V30.0935H35.0821V34.0037H39.6184V30.0935H40.7812ZM52.9692 39H51.8064L47.1295 31.9081V39H45.9667V30.0808H47.1295L51.8064 37.1599V30.0808H52.9692V39ZM62.1894 39.0894C61.363 39.0894 60.6091 38.8978 59.9276 38.5144C59.2461 38.1226 58.7052 37.5816 58.3048 36.8916C57.9129 36.193 57.717 35.4093 57.717 34.5404C57.717 33.6715 57.9129 32.892 58.3048 32.202C58.7052 31.5034 59.2461 30.9625 59.9276 30.5791C60.6091 30.1872 61.363 29.9913 62.1894 29.9913C63.0242 29.9913 63.7824 30.1872 64.4639 30.5791C65.1454 30.9625 65.6821 31.4992 66.074 32.1892C66.4658 32.8792 66.6618 33.6629 66.6618 34.5404C66.6618 35.4178 66.4658 36.2016 66.074 36.8916C65.6821 37.5816 65.1454 38.1226 64.4639 38.5144C63.7824 38.8978 63.0242 39.0894 62.1894 39.0894ZM62.1894 38.08C62.8113 38.08 63.3692 37.9351 63.8633 37.6455C64.3659 37.3559 64.7578 36.9427 65.0389 36.406C65.3286 35.8693 65.4734 35.2474 65.4734 34.5404C65.4734 33.8248 65.3286 33.2029 65.0389 32.6748C64.7578 32.1381 64.3702 31.7249 63.8761 31.4353C63.382 31.1456 62.8198 31.0008 62.1894 31.0008C61.559 31.0008 60.9967 31.1456 60.5026 31.4353C60.0086 31.7249 59.6167 32.1381 59.327 32.6748C59.0459 33.2029 58.9054 33.8248 58.9054 34.5404C58.9054 35.2474 59.0459 35.8693 59.327 36.406C59.6167 36.9427 60.0086 37.3559 60.5026 37.6455C61.0053 37.9351 61.5675 38.08 62.1894 38.08ZM72.5597 38.0544H75.6776V39H71.3969V30.0935H72.5597V38.0544ZM84.1504 39.0894C83.3241 39.0894 82.5702 38.8978 81.8887 38.5144C81.2072 38.1226 80.6662 37.5816 80.2658 36.8916C79.874 36.193 79.678 35.4093 79.678 34.5404C79.678 33.6715 79.874 32.892 80.2658 32.202C80.6662 31.5034 81.2072 30.9625 81.8887 30.5791C82.5702 30.1872 83.3241 29.9913 84.1504 29.9913C84.9853 29.9913 85.7435 30.1872 86.425 30.5791C87.1065 30.9625 87.6432 31.4992 88.035 32.1892C88.4269 32.8792 88.6228 33.6629 88.6228 34.5404C88.6228 35.4178 88.4269 36.2016 88.035 36.8916C87.6432 37.5816 87.1065 38.1226 86.425 38.5144C85.7435 38.8978 84.9853 39.0894 84.1504 39.0894ZM84.1504 38.08C84.7723 38.08 85.3303 37.9351 85.8244 37.6455C86.327 37.3559 86.7189 36.9427 87 36.406C87.2896 35.8693 87.4344 35.2474 87.4344 34.5404C87.4344 33.8248 87.2896 33.2029 87 32.6748C86.7189 32.1381 86.3313 31.7249 85.8372 31.4353C85.3431 31.1456 84.7808 31.0008 84.1504 31.0008C83.52 31.0008 82.9578 31.1456 82.4637 31.4353C81.9696 31.7249 81.5777 32.1381 81.2881 32.6748C81.007 33.2029 80.8664 33.8248 80.8664 34.5404C80.8664 35.2474 81.007 35.8693 81.2881 36.406C81.5777 36.9427 81.9696 37.3559 82.4637 37.6455C82.9663 37.9351 83.5285 38.08 84.1504 38.08ZM100.105 32.6748C99.8578 32.1551 99.5 31.7547 99.0315 31.4736C98.5629 31.184 98.0177 31.0391 97.3958 31.0391C96.774 31.0391 96.2117 31.184 95.7091 31.4736C95.215 31.7547 94.8232 32.1636 94.5335 32.7003C94.2524 33.2285 94.1118 33.8418 94.1118 34.5404C94.1118 35.2389 94.2524 35.8523 94.5335 36.3805C94.8232 36.9086 95.215 37.3175 95.7091 37.6072C96.2117 37.8883 96.774 38.0289 97.3958 38.0289C98.2648 38.0289 98.9804 37.769 99.5426 37.2494C100.105 36.7297 100.433 36.0269 100.527 35.141H96.9742V34.1954H101.766V35.0898C101.698 35.8225 101.468 36.4955 101.076 37.1088C100.684 37.7137 100.169 38.195 99.5298 38.5528C98.8909 38.902 98.1796 39.0767 97.3958 39.0767C96.5695 39.0767 95.8156 38.885 95.1341 38.5016C94.4526 38.1098 93.9116 37.5688 93.5113 36.8788C93.1194 36.1888 92.9235 35.4093 92.9235 34.5404C92.9235 33.6715 93.1194 32.892 93.5113 32.202C93.9116 31.5034 94.4526 30.9625 95.1341 30.5791C95.8156 30.1872 96.5695 29.9913 97.3958 29.9913C98.3414 29.9913 99.1763 30.2256 99.9004 30.6941C100.633 31.1627 101.165 31.8229 101.498 32.6748H100.105ZM107.666 30.0935V39H106.504V30.0935H107.666ZM114.011 31.0391V34.0165H117.257V34.9748H114.011V38.0416H117.64V39H112.848V30.0808H117.64V31.0391H114.011ZM125.424 39.0894C124.836 39.0894 124.308 38.9872 123.839 38.7828C123.379 38.5698 123.017 38.2802 122.753 37.9138C122.489 37.539 122.352 37.1088 122.344 36.6232H123.583C123.626 37.0407 123.796 37.3942 124.095 37.6838C124.401 37.965 124.844 38.1055 125.424 38.1055C125.977 38.1055 126.412 37.9692 126.727 37.6966C127.051 37.4155 127.212 37.0577 127.212 36.6232C127.212 36.2825 127.119 36.0056 126.931 35.7927C126.744 35.5797 126.51 35.4178 126.229 35.3071C125.947 35.1963 125.568 35.0771 125.091 34.9493C124.503 34.7959 124.031 34.6426 123.673 34.4893C123.324 34.3359 123.021 34.0974 122.766 33.7737C122.519 33.4414 122.395 32.9985 122.395 32.4447C122.395 31.9592 122.519 31.529 122.766 31.1541C123.013 30.7793 123.358 30.4897 123.801 30.2852C124.252 30.0808 124.768 29.9785 125.347 29.9785C126.182 29.9785 126.863 30.1872 127.391 30.6047C127.928 31.0221 128.23 31.5758 128.299 32.2658H127.021C126.978 31.9251 126.799 31.6269 126.484 31.3714C126.169 31.1073 125.752 30.9752 125.232 30.9752C124.746 30.9752 124.35 31.103 124.043 31.3586C123.737 31.6056 123.583 31.9549 123.583 32.4064C123.583 32.7301 123.673 32.9942 123.852 33.1987C124.039 33.4031 124.265 33.5607 124.529 33.6715C124.802 33.7737 125.181 33.8929 125.666 34.0292C126.254 34.1911 126.727 34.353 127.085 34.5148C127.442 34.6682 127.749 34.911 128.005 35.2432C128.26 35.5669 128.388 36.0099 128.388 36.5721C128.388 37.0066 128.273 37.4155 128.043 37.7988C127.813 38.1822 127.472 38.4931 127.021 38.7317C126.569 38.9702 126.037 39.0894 125.424 39.0894Z" fill="#31587C"></path></svg>